<?xml version="1.0" encoding="utf-8"?>
<!-- Generator: Adobe Illustrator 24.1.0, SVG Export Plug-In . SVG Version: 6.00 Build 0)  -->
<svg version="1.1" id="Layer_1" xmlns="http://www.w3.org/2000/svg" xmlns:xlink="http://www.w3.org/1999/xlink" x="0px" y="0px"
	 viewBox="0 0 159 38" style="enable-background:new 0 0 159 38;" xml:space="preserve">
<style type="text/css">
	.st0{fill:#FAAF40;}
	.st1{fill:#FFFFFF;}
	.st2{fill-rule:evenodd;clip-rule:evenodd;fill:#FFFFFF;}
</style>
<g>
	<g>
		<path class="st0" d="M62.8,14.3v0.4c0.6-0.7,1.2-1.3,1.9-1.6c0.6-0.3,1.4-0.5,2.2-0.5c1,0,1.9,0.3,2.7,0.8
			c0.8,0.5,1.5,1.2,1.9,2.2s0.7,2.1,0.7,3.4c0,1-0.1,1.9-0.4,2.7c-0.3,0.8-0.7,1.5-1.1,2.1c-0.5,0.6-1,1-1.7,1.3
			c-0.7,0.3-1.4,0.4-2.1,0.4c-0.9,0-1.7-0.2-2.3-0.5c-0.6-0.4-1.2-0.9-1.8-1.6v4.8c0,1.4-0.5,2.1-1.5,2.1c-0.6,0-1-0.2-1.2-0.5
			c-0.2-0.4-0.3-0.9-0.3-1.6V14.4c0-0.6,0.1-1.1,0.4-1.4c0.3-0.3,0.6-0.4,1.1-0.4c0.4,0,0.8,0.2,1.1,0.5
			C62.6,13.3,62.8,13.8,62.8,14.3z M69,18.9c0-0.8-0.1-1.6-0.4-2.2c-0.3-0.6-0.6-1.1-1.1-1.4c-0.5-0.3-1-0.5-1.5-0.5
			c-0.9,0-1.6,0.3-2.2,1c-0.6,0.7-0.9,1.7-0.9,3c0,1.3,0.3,2.2,0.9,2.9c0.6,0.7,1.3,1,2.2,1c0.5,0,1-0.2,1.5-0.5s0.8-0.8,1.1-1.4
			C68.8,20.6,69,19.8,69,18.9z"/>
		<path class="st0" d="M74.5,11.1c-0.4,0-0.8-0.1-1.1-0.4c-0.3-0.3-0.5-0.7-0.5-1.1c0-0.4,0.2-0.8,0.5-1.1C73.7,8.1,74.1,8,74.5,8
			c0.4,0,0.8,0.1,1.1,0.4c0.3,0.3,0.5,0.6,0.5,1.1c0,0.5-0.2,0.9-0.5,1.1C75.3,11,74.9,11.1,74.5,11.1z M76.1,14.4v9.1
			c0,0.6-0.2,1.1-0.5,1.4c-0.3,0.3-0.7,0.5-1.1,0.5c-0.5,0-0.8-0.2-1.1-0.5c-0.3-0.3-0.4-0.8-0.4-1.4v-9.1c0-0.6,0.1-1.1,0.4-1.4
			c0.3-0.3,0.7-0.5,1.1-0.5c0.5,0,0.8,0.2,1.1,0.5C75.9,13.4,76.1,13.8,76.1,14.4z"/>
		<path class="st0" d="M80.4,14.3v0.4c0.6-0.7,1.2-1.3,1.8-1.6c0.7-0.3,1.4-0.5,2.3-0.5c0.8,0,1.6,0.2,2.2,0.5
			c0.7,0.4,1.1,0.9,1.5,1.5c0.2,0.4,0.3,0.8,0.4,1.3c0.1,0.4,0.1,1,0.1,1.7v5.9c0,0.6-0.1,1.1-0.4,1.4c-0.3,0.3-0.7,0.5-1.1,0.5
			c-0.5,0-0.9-0.2-1.1-0.5c-0.3-0.3-0.4-0.8-0.4-1.4v-5.3c0-1-0.1-1.8-0.4-2.4c-0.3-0.6-0.9-0.8-1.7-0.8c-0.6,0-1.1,0.2-1.5,0.5
			c-0.5,0.3-0.8,0.8-1,1.4c-0.2,0.5-0.2,1.4-0.2,2.6v4c0,0.6-0.1,1.1-0.4,1.4c-0.3,0.3-0.7,0.5-1.2,0.5c-0.5,0-0.8-0.2-1.1-0.5
			c-0.3-0.3-0.4-0.8-0.4-1.4v-9.1c0-0.6,0.1-1.1,0.4-1.4c0.3-0.3,0.6-0.4,1.1-0.4c0.3,0,0.5,0.1,0.8,0.2c0.2,0.1,0.4,0.3,0.5,0.6
			C80.4,13.6,80.4,13.9,80.4,14.3z"/>
		<path class="st1" d="M93,9.7v4.8c0.6-0.6,1.2-1.1,1.8-1.4c0.6-0.3,1.4-0.5,2.3-0.5c1.1,0,2,0.2,2.8,0.7c0.8,0.5,1.4,1.2,1.8,2.2
			c0.4,0.9,0.7,2.1,0.7,3.4c0,1-0.1,1.8-0.4,2.6c-0.2,0.8-0.6,1.5-1.1,2.1c-0.5,0.6-1,1-1.7,1.4c-0.7,0.3-1.4,0.5-2.2,0.5
			c-0.5,0-0.9-0.1-1.4-0.2c-0.4-0.1-0.8-0.3-1.1-0.5c-0.3-0.2-0.6-0.4-0.8-0.6c-0.2-0.2-0.5-0.5-0.8-0.9v0.3c0,0.6-0.1,1-0.4,1.4
			c-0.3,0.3-0.6,0.5-1.1,0.5c-0.4,0-0.8-0.2-1.1-0.5c-0.3-0.3-0.4-0.8-0.4-1.4V9.8c0-0.6,0.1-1.1,0.4-1.5c0.3-0.3,0.6-0.5,1.1-0.5
			c0.5,0,0.9,0.2,1.1,0.5C92.9,8.6,93,9.1,93,9.7z M93.2,19.1c0,1.3,0.3,2.2,0.9,2.9s1.3,1,2.3,1c0.8,0,1.5-0.3,2.1-1
			c0.6-0.7,0.9-1.7,0.9-3c0-0.8-0.1-1.6-0.4-2.2c-0.2-0.6-0.6-1.1-1-1.4c-0.4-0.3-1-0.5-1.5-0.5c-0.6,0-1.1,0.2-1.6,0.5
			c-0.5,0.3-0.8,0.8-1.1,1.4C93.3,17.5,93.2,18.2,93.2,19.1z"/>
		<path class="st1" d="M111.1,23.7v-0.4c-0.4,0.5-0.8,0.9-1.2,1.2c-0.4,0.3-0.9,0.6-1.4,0.7c-0.5,0.2-1.1,0.2-1.7,0.2
			c-0.8,0-1.5-0.2-2.1-0.5c-0.6-0.3-1.1-0.8-1.4-1.3c-0.4-0.7-0.6-1.6-0.6-2.9v-6.3c0-0.6,0.1-1.1,0.4-1.4c0.3-0.3,0.7-0.5,1.1-0.5
			c0.5,0,0.9,0.2,1.2,0.5c0.3,0.3,0.4,0.8,0.4,1.4v5.1c0,0.7,0.1,1.4,0.2,1.8c0.1,0.5,0.3,0.9,0.7,1.2c0.3,0.3,0.8,0.4,1.3,0.4
			c0.5,0,1-0.2,1.5-0.5c0.5-0.3,0.8-0.7,1-1.2c0.2-0.4,0.3-1.4,0.3-2.9v-3.8c0-0.6,0.1-1.1,0.4-1.4c0.3-0.3,0.7-0.5,1.1-0.5
			c0.5,0,0.9,0.2,1.1,0.5c0.3,0.3,0.4,0.8,0.4,1.4v9.2c0,0.6-0.1,1.1-0.4,1.4c-0.3,0.3-0.6,0.5-1.1,0.5c-0.4,0-0.8-0.2-1.1-0.5
			C111.2,24.7,111.1,24.2,111.1,23.7z"/>
		<path class="st1" d="M127.1,14.9v9.2c0,1.1-0.1,2-0.3,2.7c-0.2,0.8-0.6,1.4-1.1,1.9c-0.5,0.5-1.1,0.9-1.9,1.1
			c-0.8,0.2-1.8,0.4-3,0.4c-1.1,0-2.1-0.2-2.9-0.5c-0.9-0.3-1.5-0.7-2-1.2c-0.5-0.5-0.7-1-0.7-1.5c0-0.4,0.1-0.7,0.4-0.9
			c0.3-0.2,0.6-0.4,1-0.4c0.5,0,0.9,0.2,1.2,0.6c0.2,0.2,0.3,0.4,0.5,0.6c0.2,0.2,0.4,0.4,0.6,0.5c0.2,0.2,0.5,0.3,0.8,0.3
			c0.3,0.1,0.7,0.1,1.1,0.1c0.8,0,1.5-0.1,1.9-0.3c0.5-0.2,0.8-0.5,1-1c0.2-0.4,0.3-0.8,0.3-1.3c0-0.5,0.1-1.2,0.1-2.3
			c-0.5,0.7-1,1.2-1.7,1.6c-0.6,0.4-1.4,0.5-2.3,0.5c-1.1,0-2-0.3-2.8-0.8c-0.8-0.5-1.4-1.3-1.8-2.3c-0.4-1-0.6-2.1-0.6-3.4
			c0-1,0.1-1.8,0.4-2.6c0.3-0.8,0.6-1.4,1.1-1.9c0.5-0.5,1-0.9,1.7-1.2c0.6-0.3,1.3-0.4,2.1-0.4c0.9,0,1.7,0.2,2.3,0.5
			c0.7,0.3,1.3,0.9,1.8,1.6v-0.4c0-0.5,0.1-1,0.4-1.3c0.3-0.3,0.6-0.5,1-0.5c0.6,0,1,0.2,1.2,0.6C127,13.6,127.1,14.1,127.1,14.9z
			 M117.9,18.9c0,1.3,0.3,2.3,0.8,2.9c0.6,0.7,1.3,1,2.2,1c0.5,0,1-0.1,1.5-0.4c0.5-0.3,0.8-0.7,1.1-1.3c0.3-0.6,0.4-1.3,0.4-2.1
			c0-1.3-0.3-2.3-0.9-3c-0.6-0.7-1.3-1.1-2.2-1.1c-0.9,0-1.6,0.3-2.2,1C118.2,16.7,117.9,17.6,117.9,18.9z"/>
		<path class="st1" d="M139.5,14.9v9.2c0,1.1-0.1,2-0.3,2.7c-0.2,0.8-0.6,1.4-1.1,1.9c-0.5,0.5-1.1,0.9-1.9,1.1
			c-0.8,0.2-1.8,0.4-3,0.4c-1.1,0-2.1-0.2-2.9-0.5c-0.9-0.3-1.5-0.7-2-1.2c-0.5-0.5-0.7-1-0.7-1.5c0-0.4,0.1-0.7,0.4-0.9
			c0.3-0.2,0.6-0.4,1-0.4c0.5,0,0.9,0.2,1.2,0.6c0.2,0.2,0.3,0.4,0.5,0.6c0.2,0.2,0.4,0.4,0.6,0.5c0.2,0.2,0.5,0.3,0.8,0.3
			c0.3,0.1,0.7,0.1,1.1,0.1c0.8,0,1.5-0.1,1.9-0.3c0.5-0.2,0.8-0.5,1-1c0.2-0.4,0.3-0.8,0.3-1.3c0-0.5,0.1-1.2,0.1-2.3
			c-0.5,0.7-1,1.2-1.7,1.6c-0.6,0.4-1.4,0.5-2.3,0.5c-1.1,0-2-0.3-2.8-0.8c-0.8-0.5-1.4-1.3-1.8-2.3c-0.4-1-0.6-2.1-0.6-3.4
			c0-1,0.1-1.8,0.4-2.6c0.3-0.8,0.6-1.4,1.1-1.9c0.5-0.5,1-0.9,1.7-1.2c0.6-0.3,1.3-0.4,2.1-0.4c0.9,0,1.7,0.2,2.3,0.5
			c0.7,0.3,1.3,0.9,1.8,1.6v-0.4c0-0.5,0.1-1,0.4-1.3c0.3-0.3,0.6-0.5,1-0.5c0.6,0,1,0.2,1.2,0.6C139.4,13.6,139.5,14.1,139.5,14.9z
			 M130.4,18.9c0,1.3,0.3,2.3,0.8,2.9c0.6,0.7,1.3,1,2.2,1c0.5,0,1-0.1,1.5-0.4c0.5-0.3,0.8-0.7,1.1-1.3c0.3-0.6,0.4-1.3,0.4-2.1
			c0-1.3-0.3-2.3-0.9-3c-0.6-0.7-1.3-1.1-2.2-1.1c-0.9,0-1.6,0.3-2.2,1C130.6,16.7,130.4,17.6,130.4,18.9z"/>
		<path class="st1" d="M143.9,25.8l0.3-0.7l-3.9-9.8c-0.2-0.6-0.4-1-0.4-1.2c0-0.3,0.1-0.5,0.2-0.8c0.1-0.2,0.3-0.4,0.6-0.6
			c0.2-0.1,0.5-0.2,0.8-0.2c0.5,0,0.8,0.1,1,0.4c0.2,0.3,0.4,0.7,0.6,1.2l2.7,7.8l2.5-7.2c0.2-0.6,0.4-1,0.5-1.4
			c0.2-0.3,0.3-0.6,0.5-0.7c0.2-0.1,0.4-0.2,0.8-0.2c0.2,0,0.5,0.1,0.7,0.2c0.2,0.1,0.4,0.3,0.5,0.5c0.1,0.2,0.2,0.4,0.2,0.7
			c0,0.1-0.1,0.4-0.2,0.6c-0.1,0.3-0.2,0.5-0.3,0.8L147,26.2c-0.4,1-0.7,1.7-1,2.2c-0.3,0.5-0.8,1-1.4,1.2c-0.6,0.3-1.3,0.4-2.3,0.4
			c-0.9,0-1.6-0.1-2.1-0.3c-0.5-0.2-0.7-0.6-0.7-1.1c0-0.4,0.1-0.6,0.3-0.8c0.2-0.2,0.5-0.3,1-0.3c0.2,0,0.3,0,0.5,0.1
			c0.2,0,0.4,0.1,0.5,0.1c0.4,0,0.6-0.1,0.9-0.2c0.2-0.1,0.4-0.3,0.6-0.6C143.5,26.7,143.7,26.4,143.9,25.8z"/>
	</g>
	<g>
		<g>
			<path class="st0" d="M43.3,21.7c0.4,0.5,1.2,0.5,1.6,0c0.5-0.5,0.5-1.3,0-1.8C38.7,13,32,11.8,32,11.8c-0.6-0.1-1.2,0.4-1.3,1
				c-0.1,0.7,0.3,1.3,0.9,1.4C31.7,14.3,37.7,15.4,43.3,21.7z"/>
			<path class="st0" d="M50.5,19.2C41.6,8.3,32.1,6.5,32.1,6.5c-0.6-0.1-1.3,0.3-1.4,1.1c-0.1,0.7,0.3,1.4,1,1.5
				c0,0,8.8,1.7,17,11.9c0.4,0.5,1.2,0.6,1.7,0.1C50.8,20.6,50.9,19.8,50.5,19.2z"/>
			<path class="st0" d="M39.5,19c-4.6-3.7-14-6.1-14.6,0.1c-0.6,6.2,2.2,6.9,2.2,6.9l-0.3,0.4l-5.7,0c0,0-4.3-1.5-3.2-8.4
				c0,0,0,0,0,0c0.2,0,0.3,0,0.5,0c2,0,3.7-1.7,3.7-3.7s-1.7-3.7-3.7-3.7c0,0,0,0,0,0c1.7-1.3,3.1-1.9,3.7-2.1
				c0.2,0.1,0.5,0.2,0.7,0.2c0.8,0,1.4-0.6,1.4-1.4s-0.6-1.4-1.4-1.4c-0.7,0-1.2,0.5-1.3,1.1c-0.9,0.3-3,1.3-5.3,3.4
				c-0.5-1.3-1.1-2.7-2-4.2c0.1-0.2,0.1-0.3,0.1-0.5c0-0.8-0.6-1.4-1.4-1.4c-0.8,0-1.4,0.6-1.4,1.4c0,0.8,0.6,1.4,1.4,1.4
				c0,0,0.1,0,0.1,0c0.7,1.2,1.3,2.4,1.7,3.5c-0.3-0.1-0.6-0.1-1-0.1c-2,0-3.7,1.7-3.7,3.7s1.7,3.7,3.7,3.7c0.1,0,0.2,0,0.3,0
				c-0.4,0.3-1,1-1.3,2c-0.6,0.1-4.6-0.1-5.3,3.5c0,0,0.1,1.2,1.3,1.6C8.3,26,8.1,27,8.1,27.9c0,3,2.2,5.5,5,5.5
				c2.2,0,4.1-1.6,4.8-3.8l0,0h16.2c0.7,2.2,2.5,3.8,4.8,3.8c2.2,0,4.1-1.6,4.8-3.8h2.1c0,0,1-0.3,1-1.8
				C46.7,26.2,44.1,22.8,39.5,19z M13.4,30.6c-1.4,0-2.5-1.2-2.5-2.7c0-1,0.5-1.8,1.2-2.3l3.1,4.1C14.8,30.3,14.1,30.6,13.4,30.6z
				 M37.2,29.1h3.5C40.7,29.1,38.8,32,37.2,29.1z M40.9,24.4c-0.5,0.5-1.2,0.5-1.7,0c-3.8-4.3-7.8-5-7.8-5c-0.6-0.1-1.1-0.8-1-1.5
				c0.1-0.7,0.7-1.2,1.4-1.1c0,0,4.7,0.8,9.1,5.8C41.4,23.1,41.4,23.9,40.9,24.4z"/>
		</g>
		<circle class="st2" cx="13.8" cy="14.4" r="3.2"/>
		<circle class="st2" cx="18.5" cy="14.4" r="3.2"/>
		<path class="st0" d="M13,14.3l0.4-1.3c-0.1,0-0.2-0.1-0.4-0.1c-0.7,0-1.3,0.6-1.3,1.3c0,0.7,0.6,1.3,1.3,1.3
			c0.7,0,1.3-0.5,1.3-1.2L13,14.3z"/>
		<path class="st0" d="M17.9,14.3l0.4-1.3c-0.1,0-0.2-0.1-0.4-0.1c-0.7,0-1.3,0.6-1.3,1.3c0,0.7,0.6,1.3,1.3,1.3
			c0.7,0,1.3-0.5,1.3-1.2L17.9,14.3z"/>
		<g>
			<path class="st1" d="M16.2,20.8c-1.5,0-2.1-1-2.2-1.6c0-0.2,0.1-0.5,0.4-0.5c0.2,0,0.5,0.1,0.5,0.3c0,0.1,0.2,0.9,1.5,0.8
				c0.2,0,0.4,0.2,0.4,0.4c0,0.2-0.2,0.4-0.4,0.4C16.3,20.8,16.2,20.8,16.2,20.8z"/>
		</g>
	</g>
</g>
</svg>
