<?xml version="1.0" encoding="utf-8"?>
<!-- Generator: Adobe Illustrator 24.1.0, SVG Export Plug-In . SVG Version: 6.00 Build 0)  -->
<svg version="1.1" id="Layer_1" xmlns="http://www.w3.org/2000/svg" xmlns:xlink="http://www.w3.org/1999/xlink" x="0px" y="0px"
	 viewBox="0 0 112 70" style="enable-background:new 0 0 112 70;" xml:space="preserve">
<style type="text/css">
	.st0{fill:#FAAF40;}
	.st1{fill:#FFFFFF;}
	.st2{fill-rule:evenodd;clip-rule:evenodd;fill:#FFFFFF;}
</style>
<g>
	<g>
		<path class="st0" d="M23.8,54.4v0.3c0.4-0.6,0.9-1,1.4-1.2c0.5-0.3,1-0.4,1.6-0.4c0.7,0,1.4,0.2,2,0.6c0.6,0.4,1.1,0.9,1.5,1.7
			s0.5,1.6,0.5,2.6c0,0.7-0.1,1.4-0.3,2c-0.2,0.6-0.5,1.1-0.8,1.5c-0.4,0.4-0.8,0.7-1.3,1c-0.5,0.2-1,0.3-1.6,0.3
			c-0.7,0-1.2-0.1-1.7-0.4c-0.5-0.3-0.9-0.7-1.3-1.2v3.6c0,1-0.4,1.6-1.1,1.6c-0.4,0-0.7-0.1-0.9-0.4s-0.2-0.7-0.2-1.2V54.4
			c0-0.5,0.1-0.8,0.3-1c0.2-0.2,0.5-0.3,0.8-0.3c0.3,0,0.6,0.1,0.8,0.3C23.7,53.7,23.8,54,23.8,54.4z M28.4,57.9
			c0-0.6-0.1-1.2-0.3-1.6c-0.2-0.4-0.5-0.8-0.8-1c-0.3-0.2-0.7-0.4-1.1-0.4c-0.7,0-1.2,0.3-1.7,0.8c-0.4,0.5-0.7,1.3-0.7,2.3
			c0,0.9,0.2,1.7,0.7,2.2c0.4,0.5,1,0.8,1.7,0.8c0.4,0,0.8-0.1,1.1-0.3s0.6-0.6,0.8-1C28.3,59.1,28.4,58.5,28.4,57.9z"/>
		<path class="st0" d="M32.6,52c-0.3,0-0.6-0.1-0.8-0.3c-0.2-0.2-0.4-0.5-0.4-0.9c0-0.3,0.1-0.6,0.4-0.8c0.2-0.2,0.5-0.3,0.8-0.3
			c0.3,0,0.6,0.1,0.8,0.3c0.2,0.2,0.4,0.5,0.4,0.9c0,0.4-0.1,0.7-0.3,0.9C33.2,51.9,32.9,52,32.6,52z M33.8,54.4v6.9
			c0,0.5-0.1,0.8-0.3,1.1c-0.2,0.2-0.5,0.4-0.9,0.4c-0.3,0-0.6-0.1-0.8-0.4c-0.2-0.2-0.3-0.6-0.3-1.1v-6.8c0-0.5,0.1-0.8,0.3-1.1
			c0.2-0.2,0.5-0.4,0.8-0.4c0.3,0,0.6,0.1,0.9,0.4C33.7,53.7,33.8,54,33.8,54.4z"/>
		<path class="st0" d="M37.1,54.4v0.3c0.4-0.6,0.9-1,1.4-1.2c0.5-0.3,1.1-0.4,1.7-0.4c0.6,0,1.2,0.1,1.7,0.4
			c0.5,0.3,0.9,0.7,1.1,1.2c0.2,0.3,0.3,0.6,0.3,0.9c0,0.3,0.1,0.8,0.1,1.3v4.4c0,0.5-0.1,0.8-0.3,1.1c-0.2,0.2-0.5,0.4-0.8,0.4
			c-0.4,0-0.6-0.1-0.9-0.4c-0.2-0.2-0.3-0.6-0.3-1.1v-4c0-0.8-0.1-1.4-0.3-1.8c-0.2-0.4-0.7-0.6-1.3-0.6c-0.4,0-0.8,0.1-1.2,0.4
			c-0.3,0.3-0.6,0.6-0.8,1c-0.1,0.4-0.2,1-0.2,2v3c0,0.5-0.1,0.8-0.3,1.1c-0.2,0.2-0.5,0.4-0.9,0.4c-0.3,0-0.6-0.1-0.8-0.4
			c-0.2-0.2-0.3-0.6-0.3-1.1v-6.9c0-0.5,0.1-0.8,0.3-1c0.2-0.2,0.5-0.3,0.8-0.3c0.2,0,0.4,0,0.6,0.1c0.2,0.1,0.3,0.2,0.4,0.4
			C37,53.9,37.1,54.1,37.1,54.4z"/>
		<path class="st1" d="M46.5,50.9v3.6c0.4-0.5,0.9-0.8,1.4-1.1c0.5-0.2,1-0.4,1.7-0.4c0.8,0,1.5,0.2,2.1,0.6
			c0.6,0.4,1.1,0.9,1.4,1.6s0.5,1.6,0.5,2.5c0,0.7-0.1,1.4-0.3,2c-0.2,0.6-0.4,1.1-0.8,1.6c-0.3,0.4-0.8,0.8-1.3,1
			c-0.5,0.2-1,0.4-1.6,0.4c-0.4,0-0.7,0-1-0.1c-0.3-0.1-0.6-0.2-0.8-0.3c-0.2-0.1-0.4-0.3-0.6-0.4c-0.2-0.2-0.4-0.4-0.6-0.7v0.2
			c0,0.4-0.1,0.8-0.3,1c-0.2,0.2-0.5,0.3-0.8,0.3c-0.3,0-0.6-0.1-0.8-0.3c-0.2-0.2-0.3-0.6-0.3-1V51c0-0.5,0.1-0.8,0.3-1.1
			c0.2-0.2,0.5-0.4,0.8-0.4c0.4,0,0.6,0.1,0.8,0.4C46.4,50.2,46.5,50.5,46.5,50.9z M46.6,58c0,0.9,0.2,1.7,0.6,2.2
			c0.4,0.5,1,0.8,1.7,0.8c0.6,0,1.1-0.3,1.5-0.8c0.4-0.5,0.6-1.3,0.6-2.2c0-0.6-0.1-1.2-0.3-1.6c-0.2-0.5-0.4-0.8-0.8-1
			c-0.3-0.2-0.7-0.4-1.2-0.4c-0.5,0-0.9,0.1-1.2,0.4c-0.4,0.2-0.6,0.6-0.8,1.1C46.7,56.8,46.6,57.3,46.6,58z"/>
		<path class="st1" d="M60.1,61.4v-0.3c-0.3,0.4-0.6,0.7-0.9,0.9c-0.3,0.2-0.7,0.4-1,0.5c-0.4,0.1-0.8,0.2-1.3,0.2
			c-0.6,0-1.1-0.1-1.5-0.4c-0.5-0.2-0.8-0.6-1.1-1c-0.3-0.5-0.4-1.2-0.4-2.2v-4.7c0-0.5,0.1-0.8,0.3-1.1c0.2-0.2,0.5-0.4,0.9-0.4
			c0.4,0,0.7,0.1,0.9,0.4c0.2,0.2,0.3,0.6,0.3,1.1v3.8c0,0.6,0,1,0.1,1.4c0.1,0.4,0.3,0.7,0.5,0.9c0.2,0.2,0.6,0.3,1,0.3
			c0.4,0,0.8-0.1,1.1-0.4c0.4-0.2,0.6-0.5,0.8-0.9c0.1-0.3,0.2-1.1,0.2-2.2v-2.9c0-0.5,0.1-0.8,0.3-1.1c0.2-0.2,0.5-0.4,0.9-0.4
			c0.4,0,0.6,0.1,0.9,0.4c0.2,0.2,0.3,0.6,0.3,1.1v6.9c0,0.5-0.1,0.8-0.3,1c-0.2,0.2-0.5,0.3-0.8,0.3c-0.3,0-0.6-0.1-0.8-0.4
			C60.2,62.2,60.1,61.8,60.1,61.4z"/>
		<path class="st1" d="M72.1,54.8v6.9c0,0.8-0.1,1.5-0.3,2c-0.2,0.6-0.4,1-0.8,1.4c-0.4,0.4-0.9,0.6-1.5,0.8
			c-0.6,0.2-1.3,0.3-2.2,0.3c-0.8,0-1.6-0.1-2.2-0.3c-0.6-0.2-1.1-0.5-1.5-0.9c-0.3-0.4-0.5-0.7-0.5-1.1c0-0.3,0.1-0.5,0.3-0.7
			c0.2-0.2,0.4-0.3,0.7-0.3c0.3,0,0.7,0.2,0.9,0.5c0.1,0.2,0.3,0.3,0.4,0.5c0.1,0.2,0.3,0.3,0.5,0.4c0.2,0.1,0.4,0.2,0.6,0.3
			c0.2,0.1,0.5,0.1,0.8,0.1c0.6,0,1.1-0.1,1.4-0.3c0.3-0.2,0.6-0.4,0.7-0.7c0.1-0.3,0.2-0.6,0.2-1c0-0.4,0-0.9,0.1-1.7
			c-0.4,0.5-0.8,0.9-1.3,1.2c-0.5,0.3-1,0.4-1.7,0.4c-0.8,0-1.5-0.2-2.1-0.6c-0.6-0.4-1.1-1-1.4-1.7c-0.3-0.7-0.5-1.6-0.5-2.5
			c0-0.7,0.1-1.4,0.3-1.9c0.2-0.6,0.5-1.1,0.8-1.5c0.4-0.4,0.8-0.7,1.2-0.9c0.5-0.2,1-0.3,1.6-0.3c0.7,0,1.3,0.1,1.8,0.4
			c0.5,0.3,1,0.7,1.4,1.2v-0.3c0-0.4,0.1-0.7,0.3-1c0.2-0.2,0.5-0.3,0.8-0.3c0.5,0,0.8,0.1,0.9,0.4C72,53.8,72.1,54.3,72.1,54.8z
			 M65.2,57.9c0,1,0.2,1.7,0.6,2.2c0.4,0.5,1,0.7,1.6,0.7c0.4,0,0.8-0.1,1.1-0.3s0.6-0.5,0.9-1c0.2-0.4,0.3-0.9,0.3-1.6
			c0-1-0.2-1.7-0.6-2.3c-0.4-0.5-1-0.8-1.7-0.8c-0.7,0-1.2,0.3-1.6,0.8C65.4,56.2,65.2,56.9,65.2,57.9z"/>
		<path class="st1" d="M81.5,54.8v6.9c0,0.8-0.1,1.5-0.3,2c-0.2,0.6-0.4,1-0.8,1.4c-0.4,0.4-0.9,0.6-1.5,0.8
			c-0.6,0.2-1.3,0.3-2.2,0.3c-0.8,0-1.6-0.1-2.2-0.3c-0.6-0.2-1.1-0.5-1.5-0.9c-0.3-0.4-0.5-0.7-0.5-1.1c0-0.3,0.1-0.5,0.3-0.7
			C73,63,73.2,63,73.5,63c0.3,0,0.7,0.2,0.9,0.5c0.1,0.2,0.3,0.3,0.4,0.5c0.1,0.2,0.3,0.3,0.5,0.4c0.2,0.1,0.4,0.2,0.6,0.3
			c0.2,0.1,0.5,0.1,0.8,0.1c0.6,0,1.1-0.1,1.4-0.3c0.3-0.2,0.6-0.4,0.7-0.7c0.1-0.3,0.2-0.6,0.2-1c0-0.4,0-0.9,0.1-1.7
			c-0.4,0.5-0.8,0.9-1.3,1.2c-0.5,0.3-1,0.4-1.7,0.4c-0.8,0-1.5-0.2-2.1-0.6c-0.6-0.4-1.1-1-1.4-1.7c-0.3-0.7-0.5-1.6-0.5-2.5
			c0-0.7,0.1-1.4,0.3-1.9c0.2-0.6,0.5-1.1,0.8-1.5c0.4-0.4,0.8-0.7,1.2-0.9c0.5-0.2,1-0.3,1.6-0.3c0.7,0,1.3,0.1,1.8,0.4
			c0.5,0.3,1,0.7,1.4,1.2v-0.3c0-0.4,0.1-0.7,0.3-1c0.2-0.2,0.5-0.3,0.8-0.3c0.5,0,0.8,0.1,0.9,0.4C81.4,53.8,81.5,54.3,81.5,54.8z
			 M74.6,57.9c0,1,0.2,1.7,0.6,2.2c0.4,0.5,1,0.7,1.6,0.7c0.4,0,0.8-0.1,1.1-0.3c0.4-0.2,0.6-0.5,0.9-1c0.2-0.4,0.3-0.9,0.3-1.6
			c0-1-0.2-1.7-0.6-2.3c-0.4-0.5-1-0.8-1.7-0.8c-0.7,0-1.2,0.3-1.6,0.8C74.8,56.2,74.6,56.9,74.6,57.9z"/>
		<path class="st1" d="M84.7,63.1l0.2-0.5L82,55.2c-0.2-0.4-0.3-0.7-0.3-0.9c0-0.2,0.1-0.4,0.2-0.6s0.2-0.3,0.4-0.4
			c0.2-0.1,0.4-0.2,0.6-0.2c0.3,0,0.6,0.1,0.8,0.3c0.2,0.2,0.3,0.5,0.5,0.9l2,5.9l1.9-5.4c0.2-0.4,0.3-0.8,0.4-1
			c0.1-0.2,0.3-0.4,0.4-0.5c0.1-0.1,0.3-0.1,0.6-0.1c0.2,0,0.4,0,0.5,0.1c0.2,0.1,0.3,0.2,0.4,0.4c0.1,0.2,0.1,0.3,0.1,0.5
			c0,0.1-0.1,0.3-0.1,0.5c-0.1,0.2-0.1,0.4-0.2,0.6l-3.1,8.1c-0.3,0.7-0.5,1.3-0.8,1.7c-0.3,0.4-0.6,0.7-1,0.9
			c-0.4,0.2-1,0.3-1.7,0.3c-0.7,0-1.2-0.1-1.6-0.2c-0.3-0.2-0.5-0.4-0.5-0.8c0-0.3,0.1-0.5,0.2-0.6c0.2-0.1,0.4-0.2,0.7-0.2
			c0.1,0,0.3,0,0.4,0.1c0.2,0,0.3,0.1,0.4,0.1c0.3,0,0.5,0,0.6-0.1c0.2-0.1,0.3-0.2,0.4-0.4C84.4,63.7,84.5,63.5,84.7,63.1z"/>
	</g>
	<g>
		<path class="st0" d="M79.6,26.9c0.6,0.7,1.6,0.7,2.2,0c0.6-0.7,0.6-1.7,0-2.4c-8.4-9.4-17.5-11-17.5-11c-0.8-0.1-1.6,0.5-1.8,1.4
			c-0.1,0.9,0.4,1.8,1.3,1.9C63.8,16.9,72,18.3,79.6,26.9z"/>
		<path class="st0" d="M89.3,23.6C77.3,8.8,64.4,6.4,64.4,6.4c-0.9-0.2-1.7,0.5-1.9,1.4c-0.2,1,0.4,1.9,1.3,2c0,0,11.9,2.4,23,16.1
			c0.6,0.7,1.6,0.8,2.3,0.1C89.8,25.4,89.8,24.3,89.3,23.6z"/>
		<path class="st0" d="M74.5,23.3c-6.3-5.1-18.9-8.2-19.7,0.2c-0.8,8.4,3,9.3,3,9.3l-0.4,0.6l-7.7,0.1c0,0-5.9-2.1-4.3-11.4
			c0,0,0,0,0,0c0.2,0,0.4,0,0.7,0c2.8,0,5-2.2,5-5s-2.2-5-5-5c0,0,0,0,0,0c2.4-1.8,4.3-2.6,5-2.8c0.3,0.2,0.6,0.3,1,0.3
			c1,0,1.9-0.8,1.9-1.9s-0.8-1.9-1.9-1.9c-0.9,0-1.7,0.7-1.8,1.6c-1.3,0.5-4,1.7-7.2,4.7c-0.7-1.8-1.5-3.7-2.7-5.7
			c0.1-0.2,0.1-0.5,0.1-0.7c0-1-0.8-1.9-1.9-1.9c-1,0-1.9,0.8-1.9,1.9c0,1,0.8,1.9,1.9,1.9c0,0,0.1,0,0.1,0c1,1.7,1.8,3.3,2.3,4.8
			C40.5,12.1,40,12,39.6,12c-2.8,0-5,2.2-5,5s2.2,5,5,5c0.1,0,0.2,0,0.4,0c-0.5,0.5-1.4,1.4-1.8,2.7c-0.8,0.1-6.2-0.1-7.1,4.8
			c0,0,0.1,1.7,1.8,2.2c-0.6,1.1-0.9,2.3-0.9,3.7c0,4.1,3,7.4,6.8,7.4c3,0,5.6-2.2,6.5-5.2l0.1,0.1h21.9c0.9,3,3.4,5.1,6.5,5.1
			c3,0,5.6-2.2,6.5-5.1h2.8c0,0,1.4-0.4,1.4-2.5C84.2,33.1,80.7,28.3,74.5,23.3z M39,39c-1.8,0-3.3-1.6-3.3-3.6
			c0-1.3,0.6-2.4,1.6-3.1l4.2,5.5C40.9,38.5,40,39,39,39z M71.3,36.9h4.8C76.1,36.9,73.4,40.8,71.3,36.9z M76.4,30.6
			c-0.6,0.7-1.7,0.7-2.3,0c-5.1-5.8-10.6-6.8-10.6-6.8c-0.9-0.2-1.5-1.1-1.3-2c0.1-1,1-1.6,1.8-1.5c0,0,6.4,1.1,12.4,7.8
			C77,28.8,77,29.9,76.4,30.6z"/>
	</g>
	<circle class="st2" cx="39.6" cy="17" r="4.3"/>
	<circle class="st2" cx="46" cy="17" r="4.3"/>
	<path class="st0" d="M38.5,16.8l0.5-1.7c-0.2,0-0.3-0.1-0.5-0.1c-1,0-1.8,0.8-1.8,1.8s0.8,1.8,1.8,1.8c0.9,0,1.7-0.7,1.8-1.6
		L38.5,16.8z"/>
	<path class="st0" d="M45.1,16.8l0.5-1.7c-0.2,0-0.3-0.1-0.5-0.1c-1,0-1.8,0.8-1.8,1.8s0.8,1.8,1.8,1.8c0.9,0,1.7-0.7,1.8-1.6
		L45.1,16.8z"/>
	<g>
		<path class="st1" d="M42.8,25.7c-2.1,0-2.9-1.4-3-2.1C39.8,23.3,40,23,40.3,23c0.3-0.1,0.6,0.2,0.7,0.5c0,0.1,0.3,1.2,2,1.1
			c0.3,0,0.6,0.2,0.6,0.6c0,0.3-0.2,0.6-0.6,0.6C43,25.7,42.9,25.7,42.8,25.7z"/>
	</g>
</g>
</svg>
